<svg xmlns="http://www.w3.org/2000/svg" width="300" height="300"><path d="M70.16 269.893h7.53c.955 0 1.548-.267 1.79-.804.237-.538.477-1.11.717-1.706L99 206.474c.245-.955.688-2.57 1.348-4.833.653-2.27 1.343-4.593 2.06-6.98.833-2.87 1.732-5.913 2.688-9.14.958 3.34 1.85 6.45 2.688 9.314.71 2.39 1.43 4.774 2.146 7.165.716 2.39 1.195 4.055 1.434 5.014l19.523 62.88h6.63c.72 0 1.285-.152 1.702-.447.42-.298.622-.99.622-2.06v-65.083l.002-.042v-28.08h-8.182c-.038 30.617-.05 59.856.034 61.945.176 4.477.326 7.794.443 9.943-1.07-3.58-2.355-7.823-3.847-12.72-1.494-4.898-2.928-9.58-4.297-14.06-1.378-4.48-2.538-8.364-3.495-11.647-.955-3.284-1.55-5.162-1.792-5.643l-8.705-27.817h-10.23l.655 2.095L91.658 202 78.22 246.783s-.062-36.418-.14-72.6h-7.924v95.713zm96.74 0c.95 0 1.546-.267 1.786-.804s.48-1.11.72-1.706l18.805-60.91c.246-.957.69-2.57 1.354-4.835.65-2.273 1.34-4.596 2.053-6.984.836-2.87 1.73-5.912 2.69-9.138.954 3.34 1.85 6.45 2.688 9.312.71 2.39 1.43 4.774 2.15 7.165.71 2.39 1.19 4.056 1.43 5.015l19.523 62.88h6.63c.72 0 1.283-.152 1.703-.447.424-.298.625-.99.625-2.06V174.18h-7.93c.077 35.41.168 70.82.227 71.888-1.07-3.58-2.353-7.823-3.847-12.72-1.494-4.898-2.925-9.58-4.296-14.06-1.377-4.48-2.54-8.364-3.498-11.647-.952-3.282-1.548-5.16-1.794-5.64l-8.705-27.818h-10.225l.654 2.1-8.767 25.72-13.44 44.782s-.06-36.417-.142-72.6h-7.924v95.712h7.533zm-48.556-122.81l-8.77 25.717.43 1.38h21.66c.04-35.04.116-71.882.116-71.882l-13.436 44.784zM150.136 29.69c-79.912 0-144.715 64.645-145 144.49H70.16V81.696c0-1.072.204-1.76.624-2.06.418-.296.985-.448 1.704-.448h6.63l19.523 62.88c.24.958.72 2.624 1.437 5.014.718 2.392 1.435 4.775 2.147 7.167.84 2.86 1.732 5.97 2.688 9.312.956-3.227 1.854-6.27 2.688-9.14.718-2.385 1.406-4.71 2.06-6.986.656-2.263 1.102-3.877 1.347-4.833l18.807-60.91c.238-.594.48-1.168.718-1.704.24-.537.834-.804 1.79-.804h7.528v94.993h19.52v-27.36l.006-.044v-65.08c0-1.073.204-1.762.623-2.06.417-.297.982-.45 1.7-.45h6.628l19.523 62.882c.24.955.72 2.62 1.44 5.01l2.144 7.168c.837 2.862 1.73 5.972 2.686 9.314.957-3.227 1.854-6.27 2.69-9.14.716-2.385 1.407-4.71 2.06-6.986.655-2.263 1.1-3.877 1.344-4.833l18.81-60.91c.236-.593.475-1.167.715-1.703s.834-.804 1.79-.804h7.53v94.993h66.08c-.29-79.846-65.09-144.49-145-144.49zM89.502 141.44c-.955-3.284-2.118-7.168-3.492-11.646-1.372-4.48-2.806-9.162-4.298-14.06s-2.776-9.14-3.85-12.72c.06 1.06.148 36 .22 71.167h21.694L91.3 147.085c-.248-.476-.842-2.355-1.798-5.642zm77.79 32.74h21.692l-8.478-27.098c-.245-.476-.838-2.355-1.797-5.642-.958-3.284-2.116-7.168-3.495-11.646-1.368-4.48-2.807-9.162-4.3-14.06-1.49-4.898-2.774-9.14-3.846-12.72l.22 71.167zm40.264-27.098l-8.775 25.72.434 1.38h21.914c-.076-35.944-.137-71.884-.137-71.884l-13.433 44.784z" fill="#424241"/></svg>