<svg xmlns="http://www.w3.org/2000/svg" width="300" height="300"><path d="M70.16 269.893h7.53c.955 0 1.548-.267 1.79-.804.237-.536.477-1.11.717-1.704L99 206.476c.245-.957.688-2.57 1.348-4.835.653-2.272 1.343-4.595 2.06-6.983.833-2.87 1.732-5.912 2.688-9.138.958 3.34 1.85 6.45 2.688 9.313.71 2.39 1.43 4.774 2.146 7.165.716 2.39 1.195 4.056 1.434 5.015l19.523 62.88h6.63c.72 0 1.285-.152 1.702-.447.42-.298.624-.99.624-2.06v-65.083l.002-.042v-28.08h-8.182c-.038 30.616-.05 59.855.034 61.944.176 4.477.326 7.794.443 9.943-1.07-3.58-2.354-7.823-3.846-12.72-1.494-4.898-2.928-9.58-4.297-14.06-1.378-4.48-2.538-8.364-3.495-11.647-.956-3.285-1.55-5.163-1.793-5.644l-8.704-27.817h-10.23l.655 2.095-8.77 25.722-13.437 44.783s-.063-36.418-.14-72.6h-7.925v95.713zm96.74 0c.95 0 1.546-.267 1.786-.804.24-.536.48-1.11.72-1.704l18.805-60.91c.244-.957.69-2.57 1.352-4.835.65-2.272 1.34-4.595 2.053-6.983.836-2.87 1.73-5.912 2.69-9.138.954 3.34 1.85 6.45 2.688 9.313.71 2.39 1.43 4.774 2.15 7.165.71 2.39 1.19 4.056 1.43 5.015l19.523 62.88h6.63c.72 0 1.283-.152 1.703-.447.423-.298.624-.99.624-2.06V174.18h-7.93c.077 35.41.168 70.82.227 71.888-1.07-3.58-2.354-7.823-3.848-12.72-1.494-4.898-2.925-9.58-4.296-14.06-1.376-4.48-2.538-8.364-3.497-11.647-.952-3.284-1.548-5.162-1.794-5.643l-8.705-27.817h-10.226l.654 2.1-8.766 25.718-13.44 44.783s-.06-36.417-.142-72.6h-7.925v95.712h7.534zm-48.556-122.81l-8.77 25.717.43 1.38h21.66c.04-35.04.116-71.882.116-71.882l-13.436 44.784zM150.136 29.69c-79.912 0-144.715 64.645-145 144.49H70.16V81.696c0-1.072.204-1.76.624-2.06.418-.296.985-.448 1.704-.448h6.63l19.523 62.88c.24.958.717 2.624 1.435 5.014.718 2.392 1.435 4.775 2.147 7.167.84 2.862 1.732 5.972 2.688 9.314.955-3.227 1.853-6.27 2.687-9.14.718-2.385 1.406-4.71 2.06-6.986.656-2.263 1.102-3.877 1.347-4.833l18.807-60.91c.238-.594.48-1.168.718-1.704.24-.536.834-.803 1.79-.803h7.528v94.993h19.52v-27.36l.006-.043v-65.08c0-1.073.204-1.762.623-2.06.418-.297.983-.45 1.702-.45h6.628l19.523 62.882c.24.956.718 2.622 1.438 5.012l2.145 7.167c.837 2.862 1.73 5.972 2.686 9.314.958-3.227 1.855-6.27 2.69-9.14.717-2.385 1.408-4.71 2.06-6.986.656-2.263 1.1-3.877 1.345-4.833l18.81-60.91c.236-.594.475-1.168.715-1.704s.836-.803 1.79-.803h7.53v94.993h66.083c-.29-79.845-65.09-144.49-145.002-144.49zM89.502 141.44c-.955-3.284-2.118-7.168-3.492-11.646-1.372-4.48-2.806-9.162-4.298-14.06s-2.776-9.14-3.85-12.72c.06 1.06.148 36 .22 71.167h21.694L91.3 147.083c-.248-.476-.842-2.355-1.798-5.642zm77.79 32.74h21.692l-8.478-27.098c-.245-.476-.838-2.355-1.797-5.642-.956-3.284-2.114-7.168-3.493-11.646-1.368-4.48-2.807-9.162-4.3-14.06-1.49-4.898-2.774-9.14-3.846-12.72l.22 71.167zm40.264-27.098l-8.775 25.72.432 1.38h21.914c-.076-35.944-.137-71.884-.137-71.884l-13.434 44.784z" fill="#424241"/></svg>