<svg xmlns="http://www.w3.org/2000/svg" width="60" height="60"><circle cx="30" cy="30" r="30"/><path d="M37.28 17.758h3.634v1.4H38.08V40.84h2.938v1.4h-6.96v-1.4h2.623V22.13l.02-.245.034-.437.018-.438v-.28l-.264.402-.37.508c-.518.7-1.217 1.62-2.098 2.763-.88 1.143-1.827 2.367-2.837 3.674-1.01 1.304-2.04 2.628-3.084 3.968-1.047 1.34-1.994 2.56-2.84 3.655-1.616-2.1-2.986-3.883-4.11-5.352-1.125-1.47-2.103-2.746-2.936-3.83-.832-1.084-1.557-2.022-2.178-2.815l-1.81-2.31-.422-.664c0 .255.006.494.02.716.01.22.027.448.05.682v18.71h2.73v1.4h-6.96v-1.4h2.832V19.16H9.644v-1.4h3.632c.258.35.643.856 1.157 1.52l1.77 2.293c.666.864 1.382 1.802 2.154 2.816.77 1.015 1.56 2.04 2.365 3.08.807 1.036 1.6 2.06 2.384 3.06.783 1.003 1.5 1.937 2.155 2.8 2.015-2.592 4.02-5.185 6.01-7.785 1.992-2.6 3.995-5.194 6.01-7.782zm9.34 0h3.634v1.4H47.42V40.84h2.937v1.4h-6.96v-1.4h2.622V22.13l.017-.245.037-.437.017-.438v-.28l-.264.402-.37.508c-.52.7-1.216 1.62-2.097 2.763-.88 1.143-1.828 2.367-2.837 3.674-1.01 1.304-2.04 2.628-3.085 3.968-1.046 1.34-1.992 2.56-2.837 3.655-1.616-2.1-2.986-3.883-4.11-5.352-1.126-1.47-2.103-2.746-2.936-3.83-.83-1.084-1.557-2.022-2.177-2.815l-1.81-2.31-.422-.664c0 .255.005.494.018.716l.052.682v18.71h2.73v1.4h-6.96v-1.4h2.832V19.16h-2.833v-1.4h3.632c.258.35.642.856 1.157 1.52l1.77 2.293c.665.864 1.382 1.802 2.154 2.816s1.56 2.04 2.366 3.08c.807 1.036 1.6 2.06 2.384 3.06s1.5 1.937 2.155 2.8c2.014-2.592 4.018-5.185 6.01-7.785 1.99-2.6 3.992-5.194 6.007-7.782z" fill="#fff"/></svg>