<svg style="display: none;"><symbol viewBox="9.084 9.084 17.25 17.25" id="icon-amazon"><title>amazon</title><path d="M19.287 13.53c-.418.036-.9.072-1.382.144-.738.104-1.477.247-2.086.563-1.19.53-1.992 1.66-1.992 3.32 0 2.083 1.22 3.14 2.76 3.14.516 0 .933-.068 1.317-.175.61-.212 1.125-.6 1.735-1.305.354.53.45.776 1.06 1.342.16.07.32.07.45-.036.385-.352 1.058-.988 1.412-1.342.16-.143.128-.352.032-.53-.354-.494-.706-.918-.706-1.87v-3.177c0-1.344.096-2.578-.802-3.495-.74-.744-1.896-1.024-2.793-1.024h-.386c-1.638.105-3.37.88-3.757 3.107-.063.28.13.388.258.424l1.798.248c.193-.038.29-.213.32-.39.162-.775.74-1.164 1.38-1.234h.13c.385 0 .8.178 1.028.528.254.425.224.99.224 1.484v.278zm-.353 4.2c-.225.494-.61.813-1.028.92-.064 0-.16.035-.256.035-.706 0-1.125-.6-1.125-1.483 0-1.128.61-1.66 1.38-1.906.418-.105.9-.142 1.382-.142v.424c0 .813.03 1.447-.353 2.152zm7.4 4.903v.115c-.018.69-.35 2.015-1.134 2.743-.157.135-.314.058-.245-.135.23-.612.75-2.033.507-2.358-.174-.25-.89-.23-1.5-.173-.278.04-.523.056-.715.1-.174.017-.21-.155-.035-.288.228-.172.472-.306.75-.404.994-.324 2.147-.134 2.304.078.034.053.068.168.068.323zm-1.657 1.34c-.227.192-.47.366-.715.522-1.83 1.21-4.203 1.84-6.26 1.84-3.316 0-6.28-1.344-8.53-3.587-.194-.173-.037-.422.19-.29 2.425 1.555 5.425 2.496 8.53 2.496 1.955 0 4.063-.403 6.07-1.268.14-.056.296-.135.436-.19.314-.155.593.23.28.478z"/></symbol><symbol viewBox="21.775 21.775 17.25 17.25" id="icon-comments"><title>comments</title><path d="M27.166 31.477h7.548v-2.153h-8.627v2.153h1.08zm7.548-5.39h-8.627v2.158h8.627v-2.16zm4.31-2.153v-1.08c0-.594-.483-1.078-1.078-1.078H22.854c-.595 0-1.08.484-1.08 1.08v11.858c0 .596.485 1.073 1.08 1.073h8.085l4.848 3.238v-3.238h2.158c.595 0 1.08-.478 1.08-1.073v-10.78zm-2.157 9.7h-3.232v1.617l-2.695-1.615h-7.005v-9.7h12.933v9.7z"/></symbol><symbol viewBox="741.375 291.375 17.25 17.25" id="icon-deal-with-it"><title>deal-with-it</title><g><path fill="#FFCC4D" d="M758.625 300c0 4.764-3.86 8.625-8.625 8.625s-8.625-3.86-8.625-8.625c0-4.764 3.86-8.625 8.625-8.625s8.625 3.86 8.625 8.625"/><path fill="#292F33" d="M741.496 296.457c.123.12.73.486.85.85s.365 2.427 1.095 3.034c.754.626 3.592.393 4.136.123 1.216-.606 1.365-2.3 1.58-3.156.122-.486.85-.486.85-.486s.73 0 .852.486c.215.857.365 2.55 1.58 3.156.545.27 3.382.504 4.137-.12.727-.61.97-2.67 1.093-3.036.12-.364.73-.728.85-.85.123-.12.123-.606 0-.73-.243-.24-3.112-.458-6.202-.12-.616.067-.85.244-2.31.244-1.457 0-1.693-.177-2.31-.243-3.087-.338-5.957-.12-6.2.12-.12.124-.12.61 0 .73"/><path fill="#664500" d="M754.736 302.855c-.09-.083-.225-.088-.322-.015-.02.015-1.99 1.47-4.414 1.47-2.417 0-4.395-1.456-4.414-1.47-.096-.073-.23-.065-.322.015-.09.08-.11.215-.048.32.065.107 1.633 2.66 4.784 2.66 3.15 0 4.72-2.553 4.784-2.66.062-.105.042-.24-.048-.32"/></g></symbol><symbol viewBox="366.375 6.375 17.25 17.25" id="icon-facebook"><title>facebook</title><path d="M382.65 6.375c.563 0 .975.413.975.975v15.3c0 .563-.412.975-.975.975h-4.388V16.95h2.25l.337-2.625h-2.588v-1.65c0-.75.225-1.275 1.313-1.275h1.388V9.075s-.9-.113-2.025-.113c-1.987 0-3.338 1.238-3.338 3.45v1.913h-2.25v2.625h2.25v6.675h-8.25c-.563 0-.975-.412-.975-.975V7.35c0-.563.413-.975.975-.975h15.3z"/></symbol><symbol viewBox="209.605 209.127 16.295 17.25" id="icon-paypal"><title>paypal</title><path d="M225.11 213.164c-.163-.2-.353-.385-.562-.548.028.52-.02 1.073-.146 1.66-.342 1.6-1.16 2.96-2.363 3.933-1.204.97-2.706 1.484-4.345 1.484h-2.39l-.774 3.625c-.15.71-.79 1.227-1.517 1.227h-1.077l-.194.89c-.05.23.007.47.154.652s.37.288.604.288h2.635c.365 0 .682-.256.758-.613l.905-4.24h3.018c1.46 0 2.793-.453 3.857-1.312 1.064-.86 1.787-2.067 2.092-3.492.308-1.44.088-2.637-.656-3.556zM213.773 223.156l.904-4.238h3.02c1.458 0 2.792-.454 3.855-1.313 1.064-.86 1.788-2.067 2.092-3.492.31-1.44.088-2.637-.655-3.556-.714-.882-1.934-1.43-3.183-1.43h-6.575c-.364 0-.68.254-.758.61l-2.852 13.092c-.05.228.007.468.154.65.146.184.37.29.604.29h2.634c.367 0 .683-.255.76-.614zm2.415-11.047h2.068c.487 0 .922.203 1.194.56.29.377.374.9.23 1.432 0 .007-.002.014-.004.02-.26 1.1-1.343 1.993-2.412 1.993h-1.982l.906-4.006z"/></symbol><symbol viewBox="741.375 291.375 17.25 17.25" id="icon-smile"><title>smile</title><g><path fill="#FFCC4D" d="M758.625 300c0 4.764-3.86 8.625-8.625 8.625s-8.625-3.86-8.625-8.625c0-4.764 3.86-8.625 8.625-8.625s8.625 3.86 8.625 8.625"/><path fill="#664500" d="M750 301.52c-1.837 0-3.058-.212-4.566-.505-.345-.066-1.015 0-1.015 1.015 0 2.03 2.33 4.566 5.58 4.566s5.58-2.537 5.58-4.566c0-1.015-.67-1.083-1.014-1.015-1.51.292-2.73.506-4.566.506"/><path fill="#664500" d="M745.94 297.462s0-1.015 1.016-1.015c1.015 0 1.015 1.015 1.015 1.015v1.015s0 1.015-1.014 1.015c-1.015 0-1.015-1.015-1.015-1.015v-1.015z"/><path fill="#664500" d="M752.03 297.462s0-1.015 1.014-1.015c1.015 0 1.015 1.015 1.015 1.015v1.015s0 1.015-1.016 1.015c-1.015 0-1.015-1.015-1.015-1.015v-1.015z"/><path fill="#fff" d="M745.434 302.03s1.522.505 4.566.505 4.566-.506 4.566-.506-1.015 2.028-4.566 2.028-4.566-2.03-4.566-2.03"/></g></symbol><symbol viewBox="364.771 6.607 21.207 17.25" id="icon-twitter"><title>twitter</title><path d="M385.98 8.642s-.83 1.34-2.17 2.247c.276 6.148-4.217 12.968-12.376 12.968-4.06 0-6.662-1.97-6.662-1.97s3.194.67 6.426-1.775c-3.27-.197-4.06-3.034-4.06-3.034s.905.235 1.97-.08c-3.666-.907-3.507-4.336-3.507-4.336s.907.552 1.97.552c-3.31-2.562-1.34-5.833-1.34-5.833s2.996 4.217 8.988 4.572c-.867-4.77 4.612-6.977 7.41-3.98 1.46-.237 2.8-1.065 2.8-1.065s-.474 1.617-1.932 2.405c1.18-.082 2.483-.673 2.483-.673z"/></symbol><symbol viewBox="741.375 8.625 17.25 17.25" id="icon-wink"><title>wink</title><g><path fill="#FFCC4D" d="M758.625 16.775c0 4.5-3.86 8.15-8.625 8.15-4.763 0-8.625-3.65-8.625-8.15s3.862-8.15 8.625-8.15c4.764 0 8.625 3.65 8.625 8.15"/><path fill="#664500" d="M748.71 16.208c-.03-.065-.762-1.58-2.262-1.58s-2.23 1.516-2.26 1.58c-.047.098-.017.215.073.283.09.07.217.072.31.008.006-.005.64-.433 1.878-.433 1.232 0 1.864.423 1.88.433.043.03.097.047.15.047.055 0 .112-.017.158-.052.09-.07.12-.186.074-.285"/><path fill="#F5F8FA" d="M756.596 15.105c0 1.722-1.476 3.117-3.297 3.117s-3.3-1.395-3.3-3.117c0-1.72 1.476-3.116 3.297-3.116s3.3 1.395 3.3 3.115"/><path fill="#292F33" d="M754.566 15.105c0 .663-.568 1.2-1.268 1.2-.702 0-1.27-.537-1.27-1.2 0-.66.568-1.198 1.27-1.198.7 0 1.268.537 1.268 1.198"/><path fill="#664500" d="M744.42 19.18c0 1.9 2.33 4.316 5.58 4.316s5.58-2.398 5.58-4.315c0 0-5.243 1.322-11.16 0"/><path fill="#E75A70" d="M746.956 20.083V23c0 1.438 1.015 2.875 3.044 2.875s3.044-1.437 3.044-2.876v-2.897c-3.193.62-6.088-.02-6.088-.02"/></g></symbol></svg>